<?xml version="1.0" standalone="no"?>
<!DOCTYPE svg PUBLIC "-//W3C//DTD SVG 1.1//EN" "http://www.w3.org/Graphics/SVG/1.1/DTD/svg11.dtd">
<svg xmlns="http://www.w3.org/2000/svg" width="640" height="640" viewBox="0 0 640 640"><path fill-rule="evenodd" d="M97.478 268.871c-5.135 2.333-10.274 7.472-12.607 12.607-1.557 3.428-1.83 6.775-1.849 22.65-.026 21.61.129 21.245-8.738 20.717L68.5 324.5v9l12.858.281c7.072.154 15.397-.184 18.5-.752 6.413-1.173 12.683-5.095 15.642-9.783 1.1-1.743 2.225-3.186 2.5-3.207s3.321 8.624 6.769 19.211c9.188 28.212 13.033 33.738 23.481 33.746 4.187.004 5.21-.456 8.632-3.878 4.265-4.265 6.71-9.963 14.651-34.151l4.772-14.532 5.134 5.135c5.263 5.262 8.503 6.787 16.811 7.91l4.75.643v14.438c0 7.942-.338 14.425-.75 14.407-1.379-.058-3.91-2.442-5.237-4.934-.723-1.356-1.53-6.59-1.794-11.63l-.479-9.165-3.736-1.12c-2.055-.615-4.031-1.119-4.392-1.119-1.007 0 .04 22.155 1.184 25.056 2.94 7.46 11.105 12.883 19.454 12.922L212 373v-39h14l-.003-4.75-.004-4.75-15.246-.048c-12.408-.039-15.847-.367-18.468-1.761-5.584-2.969-6.474-4.224-12.543-17.691-1.859-4.125-4.841-8.958-6.626-10.741l-3.245-3.24 2.789-5.124c5.296-9.732 14.085-12.582 22.888-7.423 6.432 3.769 7.458 7.35 7.458 26.029v15.461l2.421.608c5.995 1.504 6.051 1.361 6.383-16.083.412-21.675-1.319-26.915-11.091-33.584-6.068-4.14-15.154-5.152-22.178-2.47-10.141 3.873-18.477 18.338-28.189 48.911-1.371 4.314-2.705 7.63-2.965 7.37s-2.497-6.49-4.97-13.843c-5.528-16.435-13.3-32.693-17.76-37.154-1.84-1.839-4.944-4.103-6.899-5.03-4.815-2.285-15.043-2.192-20.274.184m4.022 8.093c-3.096 1.297-6.584 4.992-8.071 8.552-1.417 3.392-2.235 36.371-.953 38.445.355.575 1.744.82 3.085.543l4.921-1.018c4.792-.994 9.017-6.016 13.099-15.57 2.432-5.694 5.359-10.661 7.715-13.094l3.796-3.919-2.999-5.241c-4.595-8.031-13.352-11.73-20.593-8.698m347.722 7.445c-5.911 1.929-10.681 5.812-13.911 11.323-2.269 3.872-2.737 5.862-2.755 11.716-.047 15.124 9.665 24.552 25.292 24.552 7.975 0 11.997-1.301 16.963-5.488l3.31-2.792-3.257-3.36c-1.791-1.848-3.648-3.36-4.127-3.36s-2.345 1.125-4.148 2.5c-6.582 5.02-16.936 2.547-20.545-4.909-2.572-5.313-2.579-8.622-.031-13.617 4.027-7.893 14.254-10.059 21.477-4.549l3.058 2.332 3.943-3.31 3.942-3.311-1.966-2.174c-5.264-5.821-18.29-8.475-27.245-5.553m-347.088 1.678c-1.069 1.147-2.233 3.625-2.585 5.505-.705 3.756-.607 26.455.119 27.661.717 1.19 4.165-1.069 6.082-3.986 1.176-1.79 1.919-5.466 2.266-11.215l.516-8.552 1.53 3.435 1.531 3.435 2.704-4.613c1.487-2.537 2.703-5.08 2.703-5.65s-1.397-2.628-3.104-4.572c-3.721-4.239-8.603-4.84-11.762-1.448m81.318-1.322c-1.587 1.112-5.452 6.893-5.452 8.153 0 1.447 4.283 8.054 5.231 8.07.402.006 1.074-1.226 1.493-2.738.575-2.077.891-.784 1.293 5.278.555 8.388 2.744 13.204 7.053 15.509 1.869 1.001 1.93.533 1.93-14.828 0-15.286-.084-15.939-2.314-18.035-2.275-2.137-7.137-2.879-9.234-1.409m64.78 22.985.268 23.75h10.904l.048-12.749c.026-7.012.273-12.732.548-12.712s3.253 4.632 6.619 10.249c5.343 8.917 6.494 10.25 9.079 10.513 2.789.283 3.33-.323 9.381-10.5L291.5 305.5l.5 13 .5 13 5.25.302 5.25.303V284l-5.25.004-5.25.004-8 13.955c-4.4 7.675-8.225 13.969-8.5 13.986s-2.125-2.776-4.111-6.208-5.736-9.729-8.334-13.991l-4.723-7.75h-10.868zm65 0 .268 23.75h37l.305-4.75.305-4.75H325v-10h22.11l-.305-4.605-.305-4.606-10.5-.144-10.5-.145-.305-4.75-.305-4.75H350v-9h-37.036zm45-.086.268 23.836 14-.081c15.33-.088 19.117-.91 25.498-5.532 5.49-3.977 7.958-9.525 7.958-17.887 0-9.885-3.351-15.975-11.619-21.114-3.56-2.214-5.013-2.41-20.105-2.722l-16.269-.337zm55 .086.268 23.75 5.75.3 5.75.3V284h-12.036zm74.998-.524c-5.648 12.801-10.261 23.634-10.25 24.074s2.603.665 5.76.5l5.74-.3 2.25-4.75 2.251-4.75h21.622l2.113 5 2.112 5h5.419c2.981 0 5.685-.266 6.01-.59.6-.6-3.181-9.849-9.568-23.41a764 764 0 0 1-7.043-15.5l-3.51-8-6.318-.274-6.318-.274zm48.002.524.268 23.75h35l.305-4.75.305-4.75H548v-38h-12.036zM371.25 293.684c-.918.355-1.25 4.216-1.25 14.531v14.048l7.376-.473c11.906-.764 16.624-4.86 16.624-14.433 0-5.532-2.382-9.854-6.456-11.716-3.202-1.464-14.161-2.78-16.294-1.957m130.085 10.39L498.188 312h6.406c3.523 0 6.406-.178 6.406-.395 0-.374-6.06-14.907-6.372-15.281-.08-.096-1.562 3.391-3.293 7.75m-375.917.175c-1.6 3.356-1.54 3.653 4.545 22.326 3.392 10.409 6.577 19.342 7.078 19.851 1.579 1.605 4.966-2.435 4.888-5.831-.098-4.221-12.124-38.88-13.659-39.362-.676-.212-1.959 1.145-2.852 3.016m32.19 20.019c-7.584 23.177-10.083 28.548-14.358 30.856-2.733 1.475-2.737 1.565-.261 5.626 2.187 3.587 5.842 4.364 8.045 1.709 2.518-3.034 5.771-11.332 12.908-32.922 7.112-21.516 7.217-21.981 5.668-25.229-.868-1.819-2.21-3.308-2.984-3.308-.949 0-3.877 7.553-9.018 23.268M103 336.306l-3.5 1.194-.5 9.683c-.401 7.774-.915 10.239-2.606 12.5-1.158 1.549-2.846 2.963-3.75 3.14-1.465.288-1.617-1.022-1.394-12 .137-6.777-.088-12.436-.5-12.573s-2.437-.25-4.5-.25l-3.75-.001.152 17.251.152 17.25 3.803.323c8.721.739 16.474-3.965 19.842-12.041 1.622-3.888 2.305-25.839.801-25.726-.412.031-2.325.594-4.25 1.25m145.701 10.326c-.385.386-.701 5.126-.701 10.535V367h7.5c5.88 0 7.5-.313 7.5-1.448 0-1.041-1.473-1.532-5.25-1.75l-5.25-.302-.131-8.5c-.1-6.459-.472-8.568-1.549-8.785-.78-.156-1.733.031-2.119.417M269 354.045c0 7.209.255 8.301 2.455 10.5 3.326 3.327 10.523 3.469 13.506.266 1.716-1.841 2.039-3.517 2.039-10.573 0-7.446-.196-8.347-1.75-8.052-1.44.274-1.839 1.745-2.25 8.304-.476 7.584-.632 8.017-3.22 8.923-2.152.753-3.143.568-4.75-.886-1.689-1.528-2.03-3.07-2.03-9.182 0-6.678-.182-7.345-2-7.345-1.834 0-2 .667-2 8.045m25.041-6.795c.022.688 1.372 2.808 3 4.712s2.959 3.844 2.959 4.31-1.616 2.958-3.59 5.538c-3.445 4.5-3.502 4.703-1.402 5.022 1.275.194 2.739-.432 3.509-1.5 4.061-5.635 4.43-5.922 5.444-4.242 2.561 4.245 4.736 6.085 6.803 5.757 2.083-.33 2.003-.586-1.672-5.347l-3.86-5 3.384-4.634c3.914-5.36 4.045-5.866 1.513-5.866-1.029 0-2.942 1.572-4.25 3.493s-2.68 3.496-3.047 3.5c-.368.004-1.642-1.568-2.832-3.493-2.098-3.394-6.045-4.885-5.959-2.25m24.91-.872c-.248.245-.306 4.036-.128 8.424.408 10.082 1.979 12.198 9.061 12.198 7.173 0 8.616-2.065 8.616-12.332 0-6.942-.255-8.177-1.75-8.471-1.54-.302-1.75.545-1.75 7.075 0 5.916-.37 7.753-1.829 9.073-2.452 2.219-4.741 2.085-7.253-.427-1.776-1.776-2.034-3.062-1.75-8.721.269-5.37.036-6.698-1.217-6.952-.852-.173-1.752-.113-2 .133M345 356.384c0 9.949.126 10.616 2 10.616 1.556 0 2-.667 2-3 0-2.607.36-3 2.75-2.997 1.941.002 3.339.884 4.75 2.997 1.282 1.919 2.851 2.995 4.372 2.997 2.278.003 2.307-.086.736-2.247-2.702-3.715-2.876-4.625-1.205-6.296.878-.878 1.597-3.07 1.597-4.87 0-4.908-2.863-6.917-10.557-7.407l-6.443-.41zm22-9.809c0 .317 1.8 3.605 4 7.308 2.425 4.082 4 7.99 4 9.925 0 2.525.418 3.192 2 3.192 1.643 0 2.002-.67 2.01-3.75.006-2.632 1.175-5.587 3.919-9.913 2.151-3.39 3.647-6.428 3.324-6.75-1.547-1.548-3.54-.15-6.389 4.479l-3.117 5.067-2.894-5.067c-1.946-3.408-3.541-5.066-4.873-5.066-1.089 0-1.98.259-1.98.575m40.775.984c-3.598 1.952-4.775 4.365-4.775 9.786 0 3.772.485 4.885 3.077 7.066 3.635 3.059 10.15 3.519 13.785.973 3.323-2.327 1.264-4.093-2.806-2.407-5.634 2.333-12.207-2.557-10.376-7.718 1.704-4.804 8.061-7.118 11.127-4.052.943.943 1.561.853 2.824-.41 1.49-1.489 1.375-1.743-1.457-3.207-3.795-1.962-7.82-1.973-11.399-.031m22.733 8.087c-2.48 5.305-4.508 10.03-4.508 10.5 0 1.949 3.766.662 4.818-1.646.988-2.168 1.785-2.5 6-2.5s5.012.332 6 2.5c.69 1.514 1.969 2.5 3.244 2.5 1.158 0 1.955-.374 1.771-.831-.183-.457-2.327-5.182-4.763-10.5-5.802-12.663-6.655-12.665-12.562-.023m23.492.738c0 9.949.126 10.616 2 10.616 1.556 0 2-.667 2-3 0-2.608.36-2.999 2.75-2.994 2.005.005 3.212.818 4.453 3 1.022 1.795 2.524 2.994 3.75 2.994 2.541 0 2.55-.485.073-3.964-1.966-2.761-1.966-2.78 0-4.559 2.636-2.386 2.593-7.607-.083-10.028-1.417-1.283-4.059-1.989-8.5-2.272l-6.443-.41zm24.958-9.884c-.023.275-.061 4.887-.086 10.25l-.044 9.75 7.586.292c6.295.242 7.586.03 7.586-1.25 0-1.202-1.211-1.542-5.5-1.542-5.444 0-5.5-.03-5.5-3 0-2.933.111-3 5-3 3.778 0 5-.367 5-1.5s-1.222-1.5-5-1.5c-4.667 0-5-.167-5-2.5 0-2.364.3-2.5 5.5-2.5 4.833 0 5.5-.242 5.5-2 0-1.822-.667-2-7.5-2-4.125 0-7.519.225-7.542.5M349 353.5v3.615l4.25-.308c3.987-.288 4.25-.492 4.25-3.307s-.263-3.019-4.25-3.307l-4.25-.308zm109 0c0 3.407.105 3.5 3.933 3.5 3.085 0 4.072-.441 4.582-2.048.923-2.906-1.2-4.952-5.137-4.952-3.194 0-3.378.191-3.378 3.5m-23.176 1.561L433.149 359h3.425c3.892 0 3.992-.287 1.634-4.689l-1.708-3.189z"/></svg>