<?xml version="1.0" standalone="no"?>
<!DOCTYPE svg PUBLIC "-//W3C//DTD SVG 1.1//EN" "http://www.w3.org/Graphics/SVG/1.1/DTD/svg11.dtd">
<svg xmlns="http://www.w3.org/2000/svg" width="1024" height="1024" viewBox="0 0 1024 1024"><path fill-rule="evenodd" d="M342 285.666c-1.375.217-5.875 1.107-10 1.978-32.498 6.863-63.414 33.421-75.498 64.856-7.14 18.574-6.848 15.038-7.241 87.75l-.355 65.75H193v40.067l81.75-.306c90.902-.34 85.54.048 101.161-7.32 12.185-5.747 22.175-13.78 31.386-25.235l2.648-3.294 8.894 17.794c4.892 9.787 22.745 46.369 39.673 81.294s31.942 65.137 33.364 67.138c4.874 6.862 11.349 9.879 21.117 9.84 6.602-.026 12.29-2.447 16.696-7.106 1.885-1.992 7.511-12.476 13.75-25.622a31477 31477 0 0 1 20.935-44L590.727 554c8.789-18.425 17.233-36.025 18.767-39.112l2.787-5.612 5.743 6.612c11.03 12.7 19.556 19.137 31.739 23.962 15.569 6.166 15.31 6.15 102.195 6.15H831v-40h-57l-.006-60.75c-.006-66.196-.442-73.027-5.562-87.282-11.815-32.889-34.567-55.693-67.182-67.337-17.199-6.14-44.082-7.355-61.425-2.777-23.223 6.13-43.643 19.155-57.954 36.965-7.381 9.186-10.092 13.915-20.447 35.681a7287 7287 0 0 1-13.89 29c-14.147 29.326-28.903 60.244-31.651 66.316-1.584 3.5-3.31 6.038-3.871 5.691-.557-.344-1.012-.985-1.012-1.424s-6.996-15.109-15.547-32.599-16.488-33.866-17.638-36.392c-7.84-17.217-26.534-53.352-30.473-58.903-20.977-29.565-55.878-47.487-91.627-47.053-6.168.075-12.34.314-13.715.53m2.233 42.377c-19.934 3.58-38.143 17.39-46.656 35.386-6.06 12.81-5.953 11.457-6.336 79.821L290.89 506h31.022l.294-60.25.294-60.25 2.304-5.702c2.901-7.18 9.431-14.504 16.348-18.336 4.975-2.755 6.081-2.962 15.848-2.962 9.483 0 11.054.272 16.218 2.808 6.778 3.328 13.436 9.536 18.1 16.875 1.858 2.924 8.356 15.667 14.441 28.317 6.084 12.65 18.129 37.4 26.767 55 26.291 53.57 49.9 102.453 64.717 134 7.75 16.5 14.354 30.315 14.675 30.701s8.43-16.04 18.02-36.5c17.659-37.676 49.948-105.597 73.952-155.562 7.23-15.048 15.44-32.297 18.244-38.331 2.803-6.034 6.231-12.999 7.617-15.478 4-7.157 12.47-15.609 18.917-18.875 5.304-2.688 6.737-2.955 15.832-2.955 8.903 0 10.619.304 15.642 2.77 10.686 5.248 17.876 15.867 19.811 29.261.576 3.986 1.016 30.193 1.027 61.219L701 506h31l-.035-58.75c-.039-65.756-.303-69.113-6.464-82.086-6.761-14.236-17.227-24.886-30.975-31.518-10.168-4.905-16.314-6.152-30.026-6.09-10.42.046-13.053.417-20 2.814-16.097 5.557-29.129 16.291-38.146 31.421-2.199 3.69-10.789 20.884-19.087 38.209-20.691 43.193-46.97 97.56-61.527 127.285-8.81 17.992-12.562 24.707-13.688 24.5-.952-.175-19.908-36.895-49.052-95.021-26.125-52.105-49.262-97.246-51.415-100.313-8.069-11.494-21.278-21.458-34.574-26.082-8.133-2.828-23.795-3.94-32.778-2.326m302.946 106.674c-7.327 16.93-13.952 32.203-14.724 33.938-1.374 3.091-1.3 3.285 3.6 9.5 2.751 3.49 6.677 7.831 8.724 9.648 4.83 4.287 15.251 11.501 15.808 10.943.238-.238.316-21.668.173-47.623l-.26-47.19zM362 451.833c0 25.942.373 47.167.829 47.167 3.597 0 23.802-18.071 27.007-24.154 1.239-2.352.58-4.265-9.109-26.441-5.744-13.148-12.139-28.18-14.211-33.405s-3.936-9.687-4.142-9.917c-.206-.229-.374 20.809-.374 46.75M249 640.622v72.622l18.25-.502c19.955-.549 27.017-1.881 41.145-7.763 19.653-8.181 36.858-24.641 46.062-44.068 7.298-15.404 7.857-19.32 8.303-58.161l.398-34.75H322v31.364c0 17.249-.459 33.785-1.021 36.745-1.453 7.664-5.925 16.562-11.324 22.535-4.64 5.134-12.146 10.54-16.405 11.816l-2.25.675V568h-42zm412.245-36.372c.356 34 .518 36.708 2.608 43.633 9.176 30.408 31.384 52.578 61.85 61.746 7.865 2.366 10.89 2.697 28.547 3.126l19.75.479V568h-42v51.5c0 28.325-.275 51.5-.61 51.5-.336 0-3.298-1.433-6.584-3.184-10.717-5.712-20.428-19.275-22.815-31.865-.545-2.873-.991-19.338-.991-36.587V568h-40.134z"/></svg>